<svg width="6" height="10" viewBox="0 0 6 10" fill="none" xmlns="http://www.w3.org/2000/svg">
<path fill-rule="evenodd" clip-rule="evenodd" d="M4.78938 9.08329C5.09562 9.08329 5.33329 8.84391 5.33329 8.54008C5.33329 8.38816 5.27387 8.25005 5.16875 8.14417L1.96927 4.99536L5.16875 1.85575C5.27387 1.74987 5.33329 1.60716 5.33329 1.45984C5.33329 1.15601 5.09562 0.916626 4.78938 0.916626C4.64312 0.916626 4.51514 0.971868 4.41459 1.07315L0.858595 4.57183C0.730616 4.69152 0.666626 4.83884 0.666626 4.99996C0.666626 5.16108 0.730616 5.29919 0.854024 5.42348L4.41002 8.92677C4.51514 9.02805 4.64312 9.08329 4.78938 9.08329Z" fill="#7B8E98"/>
</svg>