<svg width="24" height="24" viewBox="0 0 24 24" fill="none" xmlns="http://www.w3.org/2000/svg">
<path d="M3.25 6C3.25 3.92893 4.92893 2.25 7 2.25H13C13.4142 2.25 13.75 2.58579 13.75 3C13.75 3.41421 13.4142 3.75 13 3.75H7C5.75736 3.75 4.75 4.75736 4.75 6V18C4.75 19.2426 5.75736 20.25 7 20.25H13C13.4142 20.25 13.75 20.5858 13.75 21C13.75 21.4142 13.4142 21.75 13 21.75H7C4.92893 21.75 3.25 20.0711 3.25 18V6Z" fill="#222222"/>
<path d="M20.2753 12.7522L16.6337 16.3937C16.3408 16.6866 16.3408 17.1615 16.6337 17.4544C16.9266 17.7473 17.4015 17.7473 17.6944 17.4544L21.6219 13.5269C22.464 12.6848 22.464 11.3196 21.6219 10.4775L17.6944 6.54999C17.4015 6.2571 16.9266 6.2571 16.6337 6.54999C16.3408 6.84289 16.3408 7.31776 16.6337 7.61065L20.2753 11.2522H9C8.58579 11.2522 8.25 11.588 8.25 12.0022C8.25 12.4164 8.58578 12.7522 9 12.7522H20.2753Z" fill="#222222"/>
</svg>