<svg width="18" height="16" viewBox="0 0 18 16" fill="none" xmlns="http://www.w3.org/2000/svg">
<path fill-rule="evenodd" clip-rule="evenodd" d="M14.1384 15.7798C14.4461 15.5485 14.5137 15.168 14.326 14.6309L12.7575 9.98315L16.7651 7.12587C17.2304 6.79762 17.418 6.44699 17.2979 6.08143C17.1778 5.71588 16.8251 5.53683 16.2473 5.54429L11.3316 5.58159L9.83818 0.911464C9.65806 0.366864 9.38789 0.083374 8.99764 0.083374C8.6149 0.083374 8.34473 0.366864 8.16461 0.911464L6.67116 5.58159L1.75554 5.54429C1.17767 5.53683 0.824948 5.71588 0.704871 6.08143C0.57729 6.44699 0.772414 6.79762 1.23771 7.12587L5.24526 9.98315L3.67676 14.6309C3.48914 15.168 3.55668 15.5485 3.86438 15.7798C4.17208 16.0185 4.56232 15.9365 5.02762 15.6007L8.99764 12.6987L12.9752 15.6007C13.4405 15.9365 13.8232 16.0185 14.1384 15.7798ZM12.9902 14.2951L9.38042 11.5572C9.14027 11.3707 8.8626 11.3707 8.62244 11.5572L5.01265 14.2951C4.98263 14.3175 4.96011 14.325 4.9451 14.31C4.93009 14.2877 4.9376 14.2802 4.9451 14.2354L6.43855 9.97562C6.54362 9.68467 6.48358 9.44594 6.22092 9.26689L2.48354 6.70056C2.44602 6.67818 2.43851 6.66326 2.44602 6.64834C2.45352 6.62596 2.46853 6.62596 2.51356 6.62596L7.05395 6.70056C7.36164 6.70802 7.55676 6.58866 7.65433 6.28278L8.96016 1.96329C8.96766 1.91853 8.98267 1.90361 8.99768 1.90361C9.0202 1.90361 9.0352 1.91853 9.04271 1.96329L10.3485 6.28278C10.4461 6.58866 10.6412 6.70802 10.9489 6.70056L15.4893 6.62596C15.5343 6.62596 15.5493 6.62596 15.5569 6.64834C15.5644 6.66326 15.5493 6.67818 15.5193 6.70056L11.782 9.26689C11.5193 9.44594 11.4592 9.68467 11.5643 9.97562L13.0578 14.2354C13.0653 14.2802 13.0728 14.2877 13.0578 14.31C13.0428 14.325 13.0202 14.3175 12.9902 14.2951Z" fill="#CFD8DC"/>
</svg>